inDegrees=yes
name=ik_S42_A07_T01
DataType=double
version=3
OpenSimVersion=4.3-2021-08-27-4bc7ad9
endheader
time	pelvis_tilt	pelvis_list	pelvis_rotation	pelvis_tx	pelvis_ty	pelvis_tz	hip_flexion_r	hip_adduction_r	hip_rotation_r	knee_angle_r	knee_angle_r_beta	ankle_angle_r	subtalar_angle_r	mtp_angle_r	hip_flexion_l	hip_adduction_l	hip_rotation_l	knee_angle_l	knee_angle_l_beta	ankle_angle_l	subtalar_angle_l	mtp_angle_l	lumbar_extension	lumbar_bending	lumbar_rotation	arm_flex_r	arm_add_r	arm_rot_r	elbow_flex_r	pro_sup_r	wrist_flex_r	wrist_dev_r	arm_flex_l	arm_add_l	arm_rot_l	elbow_flex_l	pro_sup_l	wrist_flex_l	wrist_dev_l
13.3399999999998	-6.500791945055368	-3.912465422167474	26.05041693195408	0	0.9399999999999999	0	36.04596622592248	-10.0647002701521	-9.816605906360367	37.60656590183375	0.6563583953552296	0	0	0	36.04596622592248	-10.0647002701521	-9.816605906360367	37.60656590183375	0.6563583953552296	0	0	0	-5.953694259408	-1.068394562482964	4.018542611400864	85.19770238859564	-6.609762436212948	3.934608806804827	80.18051526388342	90.54920004678468	0	0	29.9495858529721	-1.427617730285031	10.5915675039726	48.03093072782584	116.1119509639902	0	0
13.3599999999998	-6.51397726866503	-3.927148009126751	26.13229338823222	0	0.9399999999999999	0	36.04933929872019	-10.06461678560065	-9.816757982706667	37.61124227008645	0.656440013378275	0	0	0	36.04933929872019	-10.06461678560065	-9.816757982706667	37.61124227008645	0.656440013378275	0	0	0	-5.977269046456076	-1.065336446796997	3.940959287876644	84.76969260442313	-6.243783832600092	4.174450535188797	78.43789234863995	90.13891062503589	0	0	29.98584175543075	-1.438068062982312	10.59852076307244	48.04104978049649	116.0956680556373	0	0
13.3799999999998	-6.536277166091377	-3.933551200940751	26.19478970046591	0	0.9399999999999999	0	36.05581229991441	-10.06445620303337	-9.817050330827717	37.62018897550669	0.6565961628450641	0	0	0	36.05581229991441	-10.06445620303337	-9.817050330827717	37.62018897550669	0.6565961628450641	0	0	0	-6.005567261820699	-1.051414517439512	3.869910505354063	84.50070125897308	-5.868908724747445	4.288391291814523	76.38827525514503	90.11613749332248	0	0	30.01026147277701	-1.424735374723472	10.56432673607201	48.06464561920653	116.1137807403037	0	0
13.3999999999998	-6.551510354556811	-3.93776058501027	26.2210052885152	0	0.9399999999999999	0	36.06179471130519	-10.06430907048696	-9.817319062192913	37.628509783266	0.6567413883368897	0	0	0	36.06179471130519	-10.06430907048696	-9.817319062192913	37.628509783266	0.6567413883368897	0	0	0	-6.023675008403804	-1.04429526921888	3.839230175247283	84.47889940237728	-5.644251857354083	4.341236670211907	74.11963333385495	89.94207501756918	0	0	30.0173602541562	-1.43607429929275	10.54876022217865	48.0907164312116	116.1259283494261	0	0
13.4199999999998	-6.562288489866533	-3.94514893663575	26.26468761355992	0	0.9399999999999999	0	36.06684805339511	-10.06418390176532	-9.817547180608118	37.63548634107552	0.6568631522411215	0	0	0	36.06684805339511	-10.06418390176532	-9.817547180608118	37.63548634107552	0.6568631522411215	0	0	0	-6.040602855446222	-1.038557178977506	3.7834279586847	84.13807578685264	-5.319814448262073	4.445762347495735	73.19403539792258	90.04661640357493	0	0	30.00588775019319	-1.44182173597853	10.51049709798288	48.12610711971622	116.1505167290418	0	0
13.4399999999998	-6.567603397404866	-3.947769318661543	26.35932251489026	0	0.9399999999999999	0	36.07248157032181	-10.06404484781831	-9.817800971063997	37.64327853744821	0.6569991517237869	0	0	0	36.07248157032181	-10.06404484781831	-9.817800971063997	37.64327853744821	0.6569991517237869	0	0	0	-6.052910974960027	-1.026330934909309	3.69405331445816	83.74877941940085	-4.846440904518388	4.54219579677468	71.05656563759297	89.93945456933999	0	0	30.01125815174263	-1.427163223628838	10.51895231869244	48.11141411433114	116.1403169752323	0	0
13.4599999999998	-6.605513353272239	-3.962818218870442	26.44695605254321	0	0.9399999999999999	0	36.08003891641606	-10.06385827686656	-9.818141564850659	37.65371611373915	0.6571813217959919	0	0	0	36.08003891641606	-10.06385827686656	-9.818141564850659	37.65371611373915	0.6571813217959919	0	0	0	-6.100166063548799	-1.010999165570382	3.607625308600066	83.44932627926575	-4.34323940331099	4.547131138074319	68.71132451358328	89.87613947405502	0	0	30.07424818320439	-1.429226820588106	10.53791783881968	48.13041350123169	116.0948345633635	0	0
13.4799999999998	-6.625271220353536	-3.974930311563701	26.54541206473266	0	0.9399999999999999	0	36.08598419871892	-10.06371180901584	-9.818409222629782	37.66193030860528	0.6573246865418062	0	0	0	36.08598419871892	-10.06371180901584	-9.818409222629782	37.66193030860528	0.6573246865418062	0	0	0	-6.131196044476114	-0.9973071972945513	3.5016451200786	82.8322014913695	-3.637077325584691	4.56040995355802	66.39293224255783	90.29535271456177	0	0	30.12624957044712	-1.440768926343529	10.54909189163322	48.15276995601979	116.0880620088196	0	0
13.4999999999998	-6.624647553436342	-3.978662858743788	26.51652171866575	0	0.9399999999999999	0	36.09276676987686	-10.06354617152198	-9.81871290203582	37.6713617737658	0.6574892966621445	0	0	0	36.09276676987686	-10.06354617152198	-9.81871290203582	37.6713617737658	0.6574892966621445	0	0	0	-6.13178164559196	-1.002537650461471	3.519824096311995	82.75557590884782	-3.370232053345508	4.493012886850219	63.69777869440131	90.31824294540772	0	0	30.11854824457556	-1.432157498506697	10.54866068396824	48.14645199857322	116.0895072694758	0	0
13.5199999999998	-6.632990345299713	-3.986747571441934	26.64024447346603	0	0.9399999999999999	0	36.10017749732419	-10.06336414487482	-9.819046085705057	37.68159785335411	0.6576679499534567	0	0	0	36.10017749732419	-10.06336414487482	-9.819046085705057	37.68159785335411	0.6576679499534567	0	0	0	-6.151988075085369	-0.9897299939830755	3.40222014195717	81.89661334257107	-2.4886335837538	4.3217910605488	60.06966072607887	90.85339443080066	0	0	30.07454310457661	-1.468609164334888	10.59001478366647	48.22731771551577	116.0662233891951	0	0
13.5399999999998	-6.648716318688933	-4.003521597307628	26.72848975900561	0	0.9399999999999999	0	36.1064294551502	-10.06321108754661	-9.819326647749344	37.69024596517589	0.6578188879788274	0	0	0	36.1064294551502	-10.06321108754661	-9.819326647749344	37.69024596517589	0.6578188879788274	0	0	0	-6.180305032940175	-0.985070835052935	3.314882401323868	81.45746005398117	-1.915111940541787	4.074308544982125	57.47943695245091	90.97233507643929	0	0	30.09066386615976	-1.486941598947634	10.58204494138984	48.25551145416627	116.0239876523879	0	0
13.5599999999998	-6.664664239093777	-4.019412258856514	26.78221495791383	0	0.9399999999999999	0	36.1137751102092	-10.0630315613175	-9.819656021557266	37.70040759044856	0.6579962417971892	0	0	0	36.1137751102092	-10.0630315613175	-9.819656021557266	37.70040759044856	0.6579962417971892	0	0	0	-6.206733622794786	-0.9836622656278949	3.261255453967344	81.08860217858192	-1.381330093095054	3.676867176284276	54.7197323066029	91.23540792971795	0	0	30.13655462181368	-1.480408459179906	10.59528834749204	48.26497865769417	115.9974330174135	0	0
13.5799999999998	-6.684527487438611	-4.041626852613145	26.76394423835801	0	0.9399999999999999	0	36.12023568211011	-10.06287493752451	-9.819944264039773	37.70939511428426	0.6581531036797238	0	0	0	36.12023568211011	-10.06287493752451	-9.819944264039773	37.70939511428426	0.6581531036797238	0	0	0	-6.23438802821103	-0.9951610703218319	3.271288888991056	81.07920120126659	-1.088858289505483	3.53596682449008	51.65339526903918	91.43276500077791	0	0	30.15789393481061	-1.504178101147706	10.59621804274138	48.30477065836261	115.9821139204604	0	0
13.5999999999998	-6.704474626573965	-4.063710346586001	26.75093803806091	0	0.9399999999999999	0	36.12742095771193	-10.06270003049639	-9.820265802464494	37.71934058591886	0.6583266849054111	0	0	0	36.12742095771193	-10.06270003049639	-9.820265802464494	37.71934058591886	0.6583266849054111	0	0	0	-6.262482741896063	-1.006714768070543	3.276883088541729	80.67615391833274	-0.6646950336293598	3.053212670084903	48.79992068146989	92.41826406689938	0	0	30.16712310916788	-1.525333555360598	10.59181052935928	48.36228708428523	115.9794441816436	0	0
13.6199999999998	-6.707294468336147	-4.068139540032771	26.78640512827655	0	0.9399999999999999	0	36.13261504814133	-10.06257377270792	-9.820498083138665	37.72652969065074	0.6584521584532531	0	0	0	36.13261504814133	-10.06257377270792	-9.820498083138665	37.72652969065074	0.6584521584532531	0	0	0	-6.269427727128722	-1.005518815812335	3.248118698999231	80.16267258474865	-0.3618887708091766	2.90422641520002	47.62945263906064	93.09460353239031	0	0	30.18202972057559	-1.524776069137038	10.59730018291744	48.36965944199502	115.9511790525124	0	0
13.6399999999998	-6.744821244235505	-4.120372757881383	26.86448401793603	0	0.9399999999999999	0	36.13901664657087	-10.06241820596431	-9.820784396048097	37.73538001645092	0.6586066257783405	0	0	0	36.13901664657087	-10.06241820596431	-9.820784396048097	37.73538001645092	0.6586066257783405	0	0	0	-6.331768541565038	-1.02557120572689	3.182126494815432	79.6397274665218	0.1626917294446592	2.867048850192095	45.21542008548704	94.00679105480431	0	0	30.21772848026337	-1.541670029054948	10.61291240054752	48.42962271180246	115.9864946320486	0	0
13.6599999999998	-6.74599980257823	-4.124057323907268	26.95876733990322	0	0.9399999999999999	0	36.14452281628595	-10.06228480393352	-9.821030238556105	37.74300281352595	0.6587396686855113	0	0	0	36.14452281628595	-10.06228480393352	-9.821030238556105	37.74300281352595	0.6587396686855113	0	0	0	-6.341355135706127	-1.014936984542985	3.090325698793252	79.07856441319291	0.7245831375898549	2.907911749333014	42.87362152242003	94.54544057970709	0	0	30.20024562091852	-1.528907281404412	10.61311443649409	48.47711197725712	115.9729526255587	0	0
13.6799999999998	-6.79474671496777	-4.17069950453735	27.1252720971305	0	0.9399999999999999	0	36.15096508061353	-10.06212868206366	-9.821318003016154	37.75190820232211	0.6588950970411743	0	0	0	36.15096508061353	-10.06212868206366	-9.821318003016154	37.75190820232211	0.6588950970411743	0	0	0	-6.415627528860568	-1.016289114214813	2.941037467670503	78.1089637817505	1.440996920920249	3.258370907389884	39.95850507166762	93.25623384779792	0	0	30.29996809630355	-1.530426494704902	10.64717346759577	48.48434379553577	115.9445447888616	0	0
